<mxfile host="app.diagrams.net" modified="2020-10-13T10:08:23.064Z" agent="5.0 (Windows NT 10.0; Win64; x64) AppleWebKit/537.36 (KHTML, like Gecko) Chrome/84.0.4147.125 Safari/537.36" etag="z6m4ejoIZDCms1mle8u3" version="13.7.9" type="github" pages="4">
  <diagram id="YaY0FgEzMIUU4JURBvyR" name="Page-1">
    <mxGraphModel dx="1422" dy="828" grid="1" gridSize="10" guides="1" tooltips="1" connect="1" arrows="1" fold="1" page="1" pageScale="1" pageWidth="827" pageHeight="1169" math="0" shadow="0">
      <root>
        <mxCell id="0" />
        <mxCell id="1" parent="0" />
        <mxCell id="J8_Dqh23poq-W8lesjBK-14" style="edgeStyle=orthogonalEdgeStyle;rounded=0;orthogonalLoop=1;jettySize=auto;html=1;exitX=0.5;exitY=1;exitDx=0;exitDy=0;entryX=0.5;entryY=0;entryDx=0;entryDy=0;" parent="1" source="J8_Dqh23poq-W8lesjBK-2" target="J8_Dqh23poq-W8lesjBK-13" edge="1">
          <mxGeometry relative="1" as="geometry" />
        </mxCell>
        <mxCell id="J8_Dqh23poq-W8lesjBK-2" value="车源补位请求" style="rounded=1;whiteSpace=wrap;html=1;" parent="1" vertex="1">
          <mxGeometry x="270" y="130" width="120" height="40" as="geometry" />
        </mxCell>
        <mxCell id="J8_Dqh23poq-W8lesjBK-3" value="车源补位" style="text;html=1;strokeColor=none;fillColor=none;align=center;verticalAlign=middle;whiteSpace=wrap;rounded=0;" parent="1" vertex="1">
          <mxGeometry x="260" y="80" width="140" height="40" as="geometry" />
        </mxCell>
        <mxCell id="J8_Dqh23poq-W8lesjBK-18" value="否" style="edgeStyle=orthogonalEdgeStyle;rounded=0;orthogonalLoop=1;jettySize=auto;html=1;exitX=0.5;exitY=1;exitDx=0;exitDy=0;" parent="1" source="J8_Dqh23poq-W8lesjBK-13" edge="1">
          <mxGeometry relative="1" as="geometry">
            <mxPoint x="330" y="259.9999999999999" as="targetPoint" />
            <Array as="points">
              <mxPoint x="330" y="240" />
              <mxPoint x="330" y="240" />
            </Array>
          </mxGeometry>
        </mxCell>
        <mxCell id="J8_Dqh23poq-W8lesjBK-77" style="edgeStyle=orthogonalEdgeStyle;rounded=0;orthogonalLoop=1;jettySize=auto;html=1;exitX=1;exitY=0.5;exitDx=0;exitDy=0;entryX=0;entryY=0.5;entryDx=0;entryDy=0;" parent="1" source="J8_Dqh23poq-W8lesjBK-13" target="J8_Dqh23poq-W8lesjBK-74" edge="1">
          <mxGeometry relative="1" as="geometry">
            <Array as="points">
              <mxPoint x="30" y="210" />
              <mxPoint x="30" y="825" />
            </Array>
          </mxGeometry>
        </mxCell>
        <mxCell id="J8_Dqh23poq-W8lesjBK-78" value="是" style="edgeLabel;html=1;align=center;verticalAlign=middle;resizable=0;points=[];" parent="J8_Dqh23poq-W8lesjBK-77" vertex="1" connectable="0">
          <mxGeometry x="-0.6902" y="1" relative="1" as="geometry">
            <mxPoint y="-1" as="offset" />
          </mxGeometry>
        </mxCell>
        <mxCell id="J8_Dqh23poq-W8lesjBK-13" value="是否有缓存" style="rhombus;whiteSpace=wrap;html=1;" parent="1" vertex="1">
          <mxGeometry x="290" y="190" width="80" height="40" as="geometry" />
        </mxCell>
        <mxCell id="J8_Dqh23poq-W8lesjBK-22" value="同城市" style="edgeStyle=orthogonalEdgeStyle;rounded=0;orthogonalLoop=1;jettySize=auto;html=1;exitX=0;exitY=0.5;exitDx=0;exitDy=0;" parent="1" source="J8_Dqh23poq-W8lesjBK-21" edge="1">
          <mxGeometry relative="1" as="geometry">
            <mxPoint x="180" y="285" as="targetPoint" />
            <Array as="points">
              <mxPoint x="180" y="285" />
              <mxPoint x="180" y="285" />
            </Array>
          </mxGeometry>
        </mxCell>
        <mxCell id="J8_Dqh23poq-W8lesjBK-43" style="edgeStyle=orthogonalEdgeStyle;rounded=0;orthogonalLoop=1;jettySize=auto;html=1;exitX=1;exitY=0.5;exitDx=0;exitDy=0;" parent="1" source="J8_Dqh23poq-W8lesjBK-21" target="J8_Dqh23poq-W8lesjBK-37" edge="1">
          <mxGeometry relative="1" as="geometry" />
        </mxCell>
        <mxCell id="J8_Dqh23poq-W8lesjBK-21" value="城市" style="rhombus;whiteSpace=wrap;html=1;" parent="1" vertex="1">
          <mxGeometry x="290" y="260" width="80" height="50" as="geometry" />
        </mxCell>
        <mxCell id="J8_Dqh23poq-W8lesjBK-31" style="edgeStyle=orthogonalEdgeStyle;rounded=0;orthogonalLoop=1;jettySize=auto;html=1;exitX=0.5;exitY=1;exitDx=0;exitDy=0;" parent="1" source="J8_Dqh23poq-W8lesjBK-23" target="J8_Dqh23poq-W8lesjBK-25" edge="1">
          <mxGeometry relative="1" as="geometry" />
        </mxCell>
        <mxCell id="J8_Dqh23poq-W8lesjBK-23" value="筛选条件" style="rounded=0;whiteSpace=wrap;html=1;" parent="1" vertex="1">
          <mxGeometry x="60" y="270" width="120" height="30" as="geometry" />
        </mxCell>
        <mxCell id="J8_Dqh23poq-W8lesjBK-32" style="edgeStyle=orthogonalEdgeStyle;rounded=0;orthogonalLoop=1;jettySize=auto;html=1;exitX=0.5;exitY=1;exitDx=0;exitDy=0;" parent="1" source="J8_Dqh23poq-W8lesjBK-25" target="J8_Dqh23poq-W8lesjBK-26" edge="1">
          <mxGeometry relative="1" as="geometry" />
        </mxCell>
        <mxCell id="J8_Dqh23poq-W8lesjBK-25" value="按得分排序" style="rounded=0;whiteSpace=wrap;html=1;" parent="1" vertex="1">
          <mxGeometry x="60" y="320" width="120" height="30" as="geometry" />
        </mxCell>
        <mxCell id="J8_Dqh23poq-W8lesjBK-33" style="edgeStyle=orthogonalEdgeStyle;rounded=0;orthogonalLoop=1;jettySize=auto;html=1;exitX=0.5;exitY=1;exitDx=0;exitDy=0;entryX=0.5;entryY=0;entryDx=0;entryDy=0;" parent="1" source="J8_Dqh23poq-W8lesjBK-26" target="J8_Dqh23poq-W8lesjBK-29" edge="1">
          <mxGeometry relative="1" as="geometry" />
        </mxCell>
        <mxCell id="J8_Dqh23poq-W8lesjBK-26" value="按里程排序" style="rounded=0;whiteSpace=wrap;html=1;" parent="1" vertex="1">
          <mxGeometry x="60" y="370" width="120" height="30" as="geometry" />
        </mxCell>
        <mxCell id="J8_Dqh23poq-W8lesjBK-35" style="edgeStyle=orthogonalEdgeStyle;rounded=0;orthogonalLoop=1;jettySize=auto;html=1;exitX=0.5;exitY=1;exitDx=0;exitDy=0;entryX=0;entryY=0.5;entryDx=0;entryDy=0;" parent="1" source="J8_Dqh23poq-W8lesjBK-29" target="J8_Dqh23poq-W8lesjBK-34" edge="1">
          <mxGeometry relative="1" as="geometry" />
        </mxCell>
        <mxCell id="J8_Dqh23poq-W8lesjBK-29" value="按id排序" style="rounded=0;whiteSpace=wrap;html=1;" parent="1" vertex="1">
          <mxGeometry x="60" y="420" width="120" height="30" as="geometry" />
        </mxCell>
        <mxCell id="J8_Dqh23poq-W8lesjBK-67" style="edgeStyle=orthogonalEdgeStyle;rounded=0;orthogonalLoop=1;jettySize=auto;html=1;exitX=0.5;exitY=1;exitDx=0;exitDy=0;" parent="1" source="J8_Dqh23poq-W8lesjBK-34" edge="1">
          <mxGeometry relative="1" as="geometry">
            <mxPoint x="340" y="690" as="targetPoint" />
          </mxGeometry>
        </mxCell>
        <mxCell id="J8_Dqh23poq-W8lesjBK-34" value="组合数据" style="rounded=0;whiteSpace=wrap;html=1;" parent="1" vertex="1">
          <mxGeometry x="280" y="620" width="120" height="30" as="geometry" />
        </mxCell>
        <mxCell id="J8_Dqh23poq-W8lesjBK-47" style="edgeStyle=orthogonalEdgeStyle;rounded=0;orthogonalLoop=1;jettySize=auto;html=1;exitX=0.5;exitY=1;exitDx=0;exitDy=0;entryX=0.5;entryY=0;entryDx=0;entryDy=0;" parent="1" source="J8_Dqh23poq-W8lesjBK-37" target="J8_Dqh23poq-W8lesjBK-46" edge="1">
          <mxGeometry relative="1" as="geometry" />
        </mxCell>
        <mxCell id="J8_Dqh23poq-W8lesjBK-37" value="筛选条件" style="rounded=0;whiteSpace=wrap;html=1;" parent="1" vertex="1">
          <mxGeometry x="470" y="270" width="120" height="30" as="geometry" />
        </mxCell>
        <mxCell id="J8_Dqh23poq-W8lesjBK-50" style="edgeStyle=orthogonalEdgeStyle;rounded=0;orthogonalLoop=1;jettySize=auto;html=1;exitX=0.5;exitY=1;exitDx=0;exitDy=0;entryX=0.5;entryY=0;entryDx=0;entryDy=0;" parent="1" source="J8_Dqh23poq-W8lesjBK-46" target="J8_Dqh23poq-W8lesjBK-48" edge="1">
          <mxGeometry relative="1" as="geometry" />
        </mxCell>
        <mxCell id="J8_Dqh23poq-W8lesjBK-46" value="mysql数据库查询周边城市" style="rounded=0;whiteSpace=wrap;html=1;" parent="1" vertex="1">
          <mxGeometry x="470" y="320" width="120" height="30" as="geometry" />
        </mxCell>
        <mxCell id="J8_Dqh23poq-W8lesjBK-65" style="edgeStyle=orthogonalEdgeStyle;rounded=0;orthogonalLoop=1;jettySize=auto;html=1;exitX=0.5;exitY=1;exitDx=0;exitDy=0;" parent="1" source="J8_Dqh23poq-W8lesjBK-48" target="J8_Dqh23poq-W8lesjBK-59" edge="1">
          <mxGeometry relative="1" as="geometry" />
        </mxCell>
        <mxCell id="J8_Dqh23poq-W8lesjBK-48" value="按城市距离顺序循环" style="rounded=0;whiteSpace=wrap;html=1;" parent="1" vertex="1">
          <mxGeometry x="470" y="370" width="120" height="30" as="geometry" />
        </mxCell>
        <mxCell id="J8_Dqh23poq-W8lesjBK-58" style="edgeStyle=orthogonalEdgeStyle;rounded=0;orthogonalLoop=1;jettySize=auto;html=1;exitX=0.5;exitY=1;exitDx=0;exitDy=0;" parent="1" source="J8_Dqh23poq-W8lesjBK-59" target="J8_Dqh23poq-W8lesjBK-61" edge="1">
          <mxGeometry relative="1" as="geometry" />
        </mxCell>
        <mxCell id="J8_Dqh23poq-W8lesjBK-59" value="筛选条件" style="rounded=0;whiteSpace=wrap;html=1;" parent="1" vertex="1">
          <mxGeometry x="470" y="420" width="120" height="30" as="geometry" />
        </mxCell>
        <mxCell id="J8_Dqh23poq-W8lesjBK-60" style="edgeStyle=orthogonalEdgeStyle;rounded=0;orthogonalLoop=1;jettySize=auto;html=1;exitX=0.5;exitY=1;exitDx=0;exitDy=0;" parent="1" source="J8_Dqh23poq-W8lesjBK-61" target="J8_Dqh23poq-W8lesjBK-63" edge="1">
          <mxGeometry relative="1" as="geometry" />
        </mxCell>
        <mxCell id="J8_Dqh23poq-W8lesjBK-61" value="按得分排序" style="rounded=0;whiteSpace=wrap;html=1;" parent="1" vertex="1">
          <mxGeometry x="470" y="470" width="120" height="30" as="geometry" />
        </mxCell>
        <mxCell id="J8_Dqh23poq-W8lesjBK-62" style="edgeStyle=orthogonalEdgeStyle;rounded=0;orthogonalLoop=1;jettySize=auto;html=1;exitX=0.5;exitY=1;exitDx=0;exitDy=0;entryX=0.5;entryY=0;entryDx=0;entryDy=0;" parent="1" source="J8_Dqh23poq-W8lesjBK-63" target="J8_Dqh23poq-W8lesjBK-64" edge="1">
          <mxGeometry relative="1" as="geometry" />
        </mxCell>
        <mxCell id="J8_Dqh23poq-W8lesjBK-63" value="按里程排序" style="rounded=0;whiteSpace=wrap;html=1;" parent="1" vertex="1">
          <mxGeometry x="470" y="520" width="120" height="30" as="geometry" />
        </mxCell>
        <mxCell id="lm317xTcRtRXHTS_0YzU-3" style="edgeStyle=orthogonalEdgeStyle;rounded=0;orthogonalLoop=1;jettySize=auto;html=1;exitX=0.5;exitY=1;exitDx=0;exitDy=0;entryX=0.5;entryY=0;entryDx=0;entryDy=0;" parent="1" source="J8_Dqh23poq-W8lesjBK-64" target="lm317xTcRtRXHTS_0YzU-1" edge="1">
          <mxGeometry relative="1" as="geometry" />
        </mxCell>
        <mxCell id="J8_Dqh23poq-W8lesjBK-64" value="按id排序" style="rounded=0;whiteSpace=wrap;html=1;" parent="1" vertex="1">
          <mxGeometry x="470" y="570" width="120" height="30" as="geometry" />
        </mxCell>
        <mxCell id="J8_Dqh23poq-W8lesjBK-69" value="是" style="edgeStyle=orthogonalEdgeStyle;rounded=0;orthogonalLoop=1;jettySize=auto;html=1;exitX=0.5;exitY=1;exitDx=0;exitDy=0;entryX=0.5;entryY=0;entryDx=0;entryDy=0;" parent="1" source="J8_Dqh23poq-W8lesjBK-68" target="J8_Dqh23poq-W8lesjBK-70" edge="1">
          <mxGeometry relative="1" as="geometry">
            <mxPoint x="340" y="750" as="targetPoint" />
            <Array as="points" />
          </mxGeometry>
        </mxCell>
        <mxCell id="J8_Dqh23poq-W8lesjBK-76" style="edgeStyle=orthogonalEdgeStyle;rounded=0;orthogonalLoop=1;jettySize=auto;html=1;exitX=1;exitY=0.5;exitDx=0;exitDy=0;entryX=1;entryY=0.5;entryDx=0;entryDy=0;" parent="1" source="J8_Dqh23poq-W8lesjBK-68" target="J8_Dqh23poq-W8lesjBK-74" edge="1">
          <mxGeometry relative="1" as="geometry" />
        </mxCell>
        <mxCell id="J8_Dqh23poq-W8lesjBK-68" value="是否有数据" style="rhombus;whiteSpace=wrap;html=1;" parent="1" vertex="1">
          <mxGeometry x="300" y="690" width="80" height="30" as="geometry" />
        </mxCell>
        <mxCell id="J8_Dqh23poq-W8lesjBK-75" style="edgeStyle=orthogonalEdgeStyle;rounded=0;orthogonalLoop=1;jettySize=auto;html=1;exitX=0.5;exitY=1;exitDx=0;exitDy=0;entryX=0.5;entryY=0;entryDx=0;entryDy=0;" parent="1" source="J8_Dqh23poq-W8lesjBK-70" target="J8_Dqh23poq-W8lesjBK-74" edge="1">
          <mxGeometry relative="1" as="geometry" />
        </mxCell>
        <mxCell id="J8_Dqh23poq-W8lesjBK-70" value="写入缓存" style="rounded=0;whiteSpace=wrap;html=1;" parent="1" vertex="1">
          <mxGeometry x="280" y="750" width="120" height="30" as="geometry" />
        </mxCell>
        <mxCell id="J8_Dqh23poq-W8lesjBK-74" value="结束" style="rounded=1;whiteSpace=wrap;html=1;" parent="1" vertex="1">
          <mxGeometry x="280" y="810" width="120" height="30" as="geometry" />
        </mxCell>
        <mxCell id="lm317xTcRtRXHTS_0YzU-2" value="是" style="edgeStyle=orthogonalEdgeStyle;rounded=0;orthogonalLoop=1;jettySize=auto;html=1;" parent="1" source="lm317xTcRtRXHTS_0YzU-1" target="J8_Dqh23poq-W8lesjBK-34" edge="1">
          <mxGeometry relative="1" as="geometry" />
        </mxCell>
        <mxCell id="lm317xTcRtRXHTS_0YzU-4" style="edgeStyle=orthogonalEdgeStyle;rounded=0;orthogonalLoop=1;jettySize=auto;html=1;exitX=1;exitY=0.5;exitDx=0;exitDy=0;entryX=1;entryY=0.5;entryDx=0;entryDy=0;" parent="1" source="lm317xTcRtRXHTS_0YzU-1" target="J8_Dqh23poq-W8lesjBK-48" edge="1">
          <mxGeometry relative="1" as="geometry">
            <Array as="points">
              <mxPoint x="690" y="635" />
              <mxPoint x="690" y="385" />
            </Array>
          </mxGeometry>
        </mxCell>
        <mxCell id="lm317xTcRtRXHTS_0YzU-5" value="否" style="edgeLabel;html=1;align=center;verticalAlign=middle;resizable=0;points=[];" parent="lm317xTcRtRXHTS_0YzU-4" vertex="1" connectable="0">
          <mxGeometry x="0.0809" relative="1" as="geometry">
            <mxPoint as="offset" />
          </mxGeometry>
        </mxCell>
        <mxCell id="lm317xTcRtRXHTS_0YzU-1" value="数量够" style="rhombus;whiteSpace=wrap;html=1;" parent="1" vertex="1">
          <mxGeometry x="490" y="620" width="80" height="30" as="geometry" />
        </mxCell>
      </root>
    </mxGraphModel>
  </diagram>
  <diagram id="ggEPHJJ7uLkiHuBn4YKB" name="Page-2">
    <mxGraphModel dx="1422" dy="828" grid="1" gridSize="10" guides="1" tooltips="1" connect="1" arrows="1" fold="1" page="1" pageScale="1" pageWidth="827" pageHeight="1169" math="0" shadow="0">
      <root>
        <mxCell id="hOgESdCePfyeCfxQvL7d-0" />
        <mxCell id="hOgESdCePfyeCfxQvL7d-1" parent="hOgESdCePfyeCfxQvL7d-0" />
        <mxCell id="Ml-cAAwVhM9InlwH-Tw8-23" style="edgeStyle=orthogonalEdgeStyle;rounded=0;orthogonalLoop=1;jettySize=auto;html=1;exitX=0.5;exitY=1;exitDx=0;exitDy=0;" parent="hOgESdCePfyeCfxQvL7d-1" source="hOgESdCePfyeCfxQvL7d-2" target="Ml-cAAwVhM9InlwH-Tw8-22" edge="1">
          <mxGeometry relative="1" as="geometry" />
        </mxCell>
        <mxCell id="hOgESdCePfyeCfxQvL7d-2" value="同系车源推荐请求" style="rounded=1;whiteSpace=wrap;html=1;" parent="hOgESdCePfyeCfxQvL7d-1" vertex="1">
          <mxGeometry x="260" y="50" width="120" height="30" as="geometry" />
        </mxCell>
        <mxCell id="t1JR32DxBDJ35gbEJS4q-0" value="同系车源推荐" style="text;html=1;strokeColor=none;fillColor=none;align=center;verticalAlign=middle;whiteSpace=wrap;rounded=0;" parent="hOgESdCePfyeCfxQvL7d-1" vertex="1">
          <mxGeometry x="280" y="20" width="80" height="20" as="geometry" />
        </mxCell>
        <mxCell id="rfKz2qGRemFa88pTTu2A-4" style="edgeStyle=orthogonalEdgeStyle;rounded=0;orthogonalLoop=1;jettySize=auto;html=1;exitX=0.5;exitY=1;exitDx=0;exitDy=0;entryX=0.5;entryY=0;entryDx=0;entryDy=0;" parent="hOgESdCePfyeCfxQvL7d-1" source="rfKz2qGRemFa88pTTu2A-1" target="rfKz2qGRemFa88pTTu2A-3" edge="1">
          <mxGeometry relative="1" as="geometry" />
        </mxCell>
        <mxCell id="rfKz2qGRemFa88pTTu2A-1" value="同城市同车系" style="rounded=0;whiteSpace=wrap;html=1;" parent="hOgESdCePfyeCfxQvL7d-1" vertex="1">
          <mxGeometry x="260" y="180" width="120" height="30" as="geometry" />
        </mxCell>
        <mxCell id="rfKz2qGRemFa88pTTu2A-6" style="edgeStyle=orthogonalEdgeStyle;rounded=0;orthogonalLoop=1;jettySize=auto;html=1;exitX=0.5;exitY=1;exitDx=0;exitDy=0;" parent="hOgESdCePfyeCfxQvL7d-1" source="rfKz2qGRemFa88pTTu2A-3" target="rfKz2qGRemFa88pTTu2A-5" edge="1">
          <mxGeometry relative="1" as="geometry" />
        </mxCell>
        <mxCell id="rfKz2qGRemFa88pTTu2A-3" value="按得分排序" style="rounded=0;whiteSpace=wrap;html=1;" parent="hOgESdCePfyeCfxQvL7d-1" vertex="1">
          <mxGeometry x="260" y="240" width="120" height="30" as="geometry" />
        </mxCell>
        <mxCell id="Ml-cAAwVhM9InlwH-Tw8-2" style="edgeStyle=orthogonalEdgeStyle;rounded=0;orthogonalLoop=1;jettySize=auto;html=1;exitX=0.5;exitY=1;exitDx=0;exitDy=0;entryX=0.5;entryY=0;entryDx=0;entryDy=0;" parent="hOgESdCePfyeCfxQvL7d-1" source="rfKz2qGRemFa88pTTu2A-5" target="Ml-cAAwVhM9InlwH-Tw8-1" edge="1">
          <mxGeometry relative="1" as="geometry" />
        </mxCell>
        <mxCell id="rfKz2qGRemFa88pTTu2A-5" value="按里程排序" style="rounded=0;whiteSpace=wrap;html=1;" parent="hOgESdCePfyeCfxQvL7d-1" vertex="1">
          <mxGeometry x="260" y="300" width="120" height="30" as="geometry" />
        </mxCell>
        <mxCell id="Ml-cAAwVhM9InlwH-Tw8-5" style="edgeStyle=orthogonalEdgeStyle;rounded=0;orthogonalLoop=1;jettySize=auto;html=1;exitX=0.5;exitY=1;exitDx=0;exitDy=0;" parent="hOgESdCePfyeCfxQvL7d-1" source="Ml-cAAwVhM9InlwH-Tw8-1" target="Ml-cAAwVhM9InlwH-Tw8-4" edge="1">
          <mxGeometry relative="1" as="geometry" />
        </mxCell>
        <mxCell id="Ml-cAAwVhM9InlwH-Tw8-1" value="按id排序" style="rounded=0;whiteSpace=wrap;html=1;" parent="hOgESdCePfyeCfxQvL7d-1" vertex="1">
          <mxGeometry x="260" y="360" width="120" height="30" as="geometry" />
        </mxCell>
        <mxCell id="Ml-cAAwVhM9InlwH-Tw8-6" value="不够" style="edgeStyle=orthogonalEdgeStyle;rounded=0;orthogonalLoop=1;jettySize=auto;html=1;exitX=0.5;exitY=1;exitDx=0;exitDy=0;" parent="hOgESdCePfyeCfxQvL7d-1" source="Ml-cAAwVhM9InlwH-Tw8-4" edge="1">
          <mxGeometry relative="1" as="geometry">
            <mxPoint x="320" y="520" as="targetPoint" />
          </mxGeometry>
        </mxCell>
        <mxCell id="Ml-cAAwVhM9InlwH-Tw8-32" style="edgeStyle=orthogonalEdgeStyle;rounded=0;orthogonalLoop=1;jettySize=auto;html=1;exitX=0;exitY=0.5;exitDx=0;exitDy=0;entryX=0;entryY=0.5;entryDx=0;entryDy=0;" parent="hOgESdCePfyeCfxQvL7d-1" source="Ml-cAAwVhM9InlwH-Tw8-4" target="Ml-cAAwVhM9InlwH-Tw8-28" edge="1">
          <mxGeometry relative="1" as="geometry">
            <Array as="points">
              <mxPoint x="230" y="440" />
              <mxPoint x="230" y="645" />
            </Array>
          </mxGeometry>
        </mxCell>
        <mxCell id="Lj8ogUZ1fyl0sjDGNZhF-0" value="够" style="edgeLabel;html=1;align=center;verticalAlign=middle;resizable=0;points=[];" parent="Ml-cAAwVhM9InlwH-Tw8-32" vertex="1" connectable="0">
          <mxGeometry x="-0.2" relative="1" as="geometry">
            <mxPoint as="offset" />
          </mxGeometry>
        </mxCell>
        <mxCell id="Ml-cAAwVhM9InlwH-Tw8-4" value="数量" style="rhombus;whiteSpace=wrap;html=1;" parent="hOgESdCePfyeCfxQvL7d-1" vertex="1">
          <mxGeometry x="280" y="420" width="80" height="40" as="geometry" />
        </mxCell>
        <mxCell id="Ml-cAAwVhM9InlwH-Tw8-8" style="edgeStyle=orthogonalEdgeStyle;rounded=0;orthogonalLoop=1;jettySize=auto;html=1;exitX=0.5;exitY=1;exitDx=0;exitDy=0;entryX=0;entryY=0.5;entryDx=0;entryDy=0;" parent="hOgESdCePfyeCfxQvL7d-1" source="Ml-cAAwVhM9InlwH-Tw8-7" target="Ml-cAAwVhM9InlwH-Tw8-11" edge="1">
          <mxGeometry relative="1" as="geometry">
            <mxPoint x="320" y="530" as="targetPoint" />
          </mxGeometry>
        </mxCell>
        <mxCell id="Ml-cAAwVhM9InlwH-Tw8-7" value="查询省份" style="rounded=0;whiteSpace=wrap;html=1;" parent="hOgESdCePfyeCfxQvL7d-1" vertex="1">
          <mxGeometry x="260" y="520" width="120" height="30" as="geometry" />
        </mxCell>
        <mxCell id="Ml-cAAwVhM9InlwH-Tw8-13" style="edgeStyle=orthogonalEdgeStyle;rounded=0;orthogonalLoop=1;jettySize=auto;html=1;exitX=0.5;exitY=1;exitDx=0;exitDy=0;" parent="hOgESdCePfyeCfxQvL7d-1" source="Ml-cAAwVhM9InlwH-Tw8-11" edge="1">
          <mxGeometry relative="1" as="geometry">
            <mxPoint x="560" y="300" as="targetPoint" />
          </mxGeometry>
        </mxCell>
        <mxCell id="Ml-cAAwVhM9InlwH-Tw8-11" value="按省份查询同车系" style="rounded=0;whiteSpace=wrap;html=1;" parent="hOgESdCePfyeCfxQvL7d-1" vertex="1">
          <mxGeometry x="500" y="250" width="120" height="30" as="geometry" />
        </mxCell>
        <mxCell id="Ml-cAAwVhM9InlwH-Tw8-14" value="按得分排序" style="rounded=0;whiteSpace=wrap;html=1;" parent="hOgESdCePfyeCfxQvL7d-1" vertex="1">
          <mxGeometry x="260" y="240" width="120" height="30" as="geometry" />
        </mxCell>
        <mxCell id="Ml-cAAwVhM9InlwH-Tw8-15" value="按里程排序" style="rounded=0;whiteSpace=wrap;html=1;" parent="hOgESdCePfyeCfxQvL7d-1" vertex="1">
          <mxGeometry x="260" y="300" width="120" height="30" as="geometry" />
        </mxCell>
        <mxCell id="Ml-cAAwVhM9InlwH-Tw8-29" style="edgeStyle=orthogonalEdgeStyle;rounded=0;orthogonalLoop=1;jettySize=auto;html=1;exitX=0.5;exitY=1;exitDx=0;exitDy=0;entryX=1;entryY=0.5;entryDx=0;entryDy=0;" parent="hOgESdCePfyeCfxQvL7d-1" source="Ml-cAAwVhM9InlwH-Tw8-16" target="Ml-cAAwVhM9InlwH-Tw8-28" edge="1">
          <mxGeometry relative="1" as="geometry" />
        </mxCell>
        <mxCell id="Ml-cAAwVhM9InlwH-Tw8-16" value="按id排序" style="rounded=0;whiteSpace=wrap;html=1;" parent="hOgESdCePfyeCfxQvL7d-1" vertex="1">
          <mxGeometry x="500" y="420" width="120" height="30" as="geometry" />
        </mxCell>
        <mxCell id="Ml-cAAwVhM9InlwH-Tw8-20" style="edgeStyle=orthogonalEdgeStyle;rounded=0;orthogonalLoop=1;jettySize=auto;html=1;exitX=0.5;exitY=1;exitDx=0;exitDy=0;entryX=0.5;entryY=0;entryDx=0;entryDy=0;" parent="hOgESdCePfyeCfxQvL7d-1" source="Ml-cAAwVhM9InlwH-Tw8-17" target="Ml-cAAwVhM9InlwH-Tw8-18" edge="1">
          <mxGeometry relative="1" as="geometry" />
        </mxCell>
        <mxCell id="Ml-cAAwVhM9InlwH-Tw8-17" value="按得分排序" style="rounded=0;whiteSpace=wrap;html=1;" parent="hOgESdCePfyeCfxQvL7d-1" vertex="1">
          <mxGeometry x="500" y="300" width="120" height="30" as="geometry" />
        </mxCell>
        <mxCell id="Ml-cAAwVhM9InlwH-Tw8-21" style="edgeStyle=orthogonalEdgeStyle;rounded=0;orthogonalLoop=1;jettySize=auto;html=1;exitX=0.5;exitY=1;exitDx=0;exitDy=0;entryX=0.5;entryY=0;entryDx=0;entryDy=0;" parent="hOgESdCePfyeCfxQvL7d-1" source="Ml-cAAwVhM9InlwH-Tw8-18" target="Ml-cAAwVhM9InlwH-Tw8-16" edge="1">
          <mxGeometry relative="1" as="geometry" />
        </mxCell>
        <mxCell id="Ml-cAAwVhM9InlwH-Tw8-18" value="按里程排序" style="rounded=0;whiteSpace=wrap;html=1;" parent="hOgESdCePfyeCfxQvL7d-1" vertex="1">
          <mxGeometry x="500" y="350" width="120" height="30" as="geometry" />
        </mxCell>
        <mxCell id="Ml-cAAwVhM9InlwH-Tw8-24" style="edgeStyle=orthogonalEdgeStyle;rounded=0;orthogonalLoop=1;jettySize=auto;html=1;exitX=0.5;exitY=1;exitDx=0;exitDy=0;entryX=0.5;entryY=0;entryDx=0;entryDy=0;" parent="hOgESdCePfyeCfxQvL7d-1" source="Ml-cAAwVhM9InlwH-Tw8-22" target="rfKz2qGRemFa88pTTu2A-1" edge="1">
          <mxGeometry relative="1" as="geometry" />
        </mxCell>
        <mxCell id="Ml-cAAwVhM9InlwH-Tw8-34" style="edgeStyle=orthogonalEdgeStyle;rounded=0;orthogonalLoop=1;jettySize=auto;html=1;exitX=0;exitY=0.5;exitDx=0;exitDy=0;entryX=0;entryY=0.5;entryDx=0;entryDy=0;" parent="hOgESdCePfyeCfxQvL7d-1" source="Ml-cAAwVhM9InlwH-Tw8-22" target="Ml-cAAwVhM9InlwH-Tw8-26" edge="1">
          <mxGeometry relative="1" as="geometry">
            <Array as="points">
              <mxPoint x="130" y="130" />
              <mxPoint x="130" y="735" />
            </Array>
          </mxGeometry>
        </mxCell>
        <mxCell id="Ml-cAAwVhM9InlwH-Tw8-22" value="缓存" style="rhombus;whiteSpace=wrap;html=1;" parent="hOgESdCePfyeCfxQvL7d-1" vertex="1">
          <mxGeometry x="280" y="110" width="80" height="40" as="geometry" />
        </mxCell>
        <mxCell id="Ml-cAAwVhM9InlwH-Tw8-26" value="结束" style="rounded=1;whiteSpace=wrap;html=1;" parent="hOgESdCePfyeCfxQvL7d-1" vertex="1">
          <mxGeometry x="270" y="720" width="120" height="30" as="geometry" />
        </mxCell>
        <mxCell id="Ml-cAAwVhM9InlwH-Tw8-33" style="edgeStyle=orthogonalEdgeStyle;rounded=0;orthogonalLoop=1;jettySize=auto;html=1;exitX=0.5;exitY=1;exitDx=0;exitDy=0;entryX=0.5;entryY=0;entryDx=0;entryDy=0;" parent="hOgESdCePfyeCfxQvL7d-1" source="Ml-cAAwVhM9InlwH-Tw8-28" target="Ml-cAAwVhM9InlwH-Tw8-26" edge="1">
          <mxGeometry relative="1" as="geometry" />
        </mxCell>
        <mxCell id="Ml-cAAwVhM9InlwH-Tw8-28" value="写入缓存" style="rounded=0;whiteSpace=wrap;html=1;" parent="hOgESdCePfyeCfxQvL7d-1" vertex="1">
          <mxGeometry x="270" y="630" width="120" height="30" as="geometry" />
        </mxCell>
      </root>
    </mxGraphModel>
  </diagram>
  <diagram id="6dnLuR7ClPw9u-mbXnIr" name="Page-3">
    <mxGraphModel dx="1422" dy="828" grid="1" gridSize="10" guides="1" tooltips="1" connect="1" arrows="1" fold="1" page="1" pageScale="1" pageWidth="827" pageHeight="1169" math="0" shadow="0">
      <root>
        <mxCell id="TtewC0Fa2fpn-9esSaC2-0" />
        <mxCell id="TtewC0Fa2fpn-9esSaC2-1" parent="TtewC0Fa2fpn-9esSaC2-0" />
        <mxCell id="TtewC0Fa2fpn-9esSaC2-2" value="同价位车源推荐" style="text;html=1;strokeColor=none;fillColor=none;align=center;verticalAlign=middle;whiteSpace=wrap;rounded=0;" parent="TtewC0Fa2fpn-9esSaC2-1" vertex="1">
          <mxGeometry x="280" y="20" width="160" height="20" as="geometry" />
        </mxCell>
        <mxCell id="y2JGHucnLY-TwAghRRZY-2" style="edgeStyle=orthogonalEdgeStyle;rounded=0;orthogonalLoop=1;jettySize=auto;html=1;exitX=0.5;exitY=1;exitDx=0;exitDy=0;" parent="TtewC0Fa2fpn-9esSaC2-1" source="TtewC0Fa2fpn-9esSaC2-3" target="y2JGHucnLY-TwAghRRZY-1" edge="1">
          <mxGeometry relative="1" as="geometry" />
        </mxCell>
        <mxCell id="TtewC0Fa2fpn-9esSaC2-3" value="&lt;span&gt;同价位车源推荐请求&lt;/span&gt;" style="rounded=0;whiteSpace=wrap;html=1;" parent="TtewC0Fa2fpn-9esSaC2-1" vertex="1">
          <mxGeometry x="300" y="50" width="120" height="30" as="geometry" />
        </mxCell>
        <mxCell id="y2JGHucnLY-TwAghRRZY-5" style="edgeStyle=orthogonalEdgeStyle;rounded=0;orthogonalLoop=1;jettySize=auto;html=1;exitX=0.5;exitY=1;exitDx=0;exitDy=0;entryX=0.5;entryY=0;entryDx=0;entryDy=0;" parent="TtewC0Fa2fpn-9esSaC2-1" source="y2JGHucnLY-TwAghRRZY-0" target="y2JGHucnLY-TwAghRRZY-4" edge="1">
          <mxGeometry relative="1" as="geometry" />
        </mxCell>
        <mxCell id="y2JGHucnLY-TwAghRRZY-0" value="计算价格范围" style="rounded=0;whiteSpace=wrap;html=1;" parent="TtewC0Fa2fpn-9esSaC2-1" vertex="1">
          <mxGeometry x="300" y="180" width="120" height="30" as="geometry" />
        </mxCell>
        <mxCell id="y2JGHucnLY-TwAghRRZY-3" value="否" style="edgeStyle=orthogonalEdgeStyle;rounded=0;orthogonalLoop=1;jettySize=auto;html=1;exitX=0.5;exitY=1;exitDx=0;exitDy=0;entryX=0.5;entryY=0;entryDx=0;entryDy=0;" parent="TtewC0Fa2fpn-9esSaC2-1" source="y2JGHucnLY-TwAghRRZY-1" target="y2JGHucnLY-TwAghRRZY-0" edge="1">
          <mxGeometry relative="1" as="geometry" />
        </mxCell>
        <mxCell id="bI8IC3T_FHCIpc6wMtXV-10" style="edgeStyle=orthogonalEdgeStyle;rounded=0;orthogonalLoop=1;jettySize=auto;html=1;exitX=0;exitY=0.5;exitDx=0;exitDy=0;entryX=0;entryY=0.5;entryDx=0;entryDy=0;" parent="TtewC0Fa2fpn-9esSaC2-1" source="y2JGHucnLY-TwAghRRZY-1" target="bI8IC3T_FHCIpc6wMtXV-5" edge="1">
          <mxGeometry relative="1" as="geometry">
            <mxPoint x="290" y="520" as="targetPoint" />
            <Array as="points">
              <mxPoint x="120" y="125" />
              <mxPoint x="120" y="515" />
            </Array>
          </mxGeometry>
        </mxCell>
        <mxCell id="bI8IC3T_FHCIpc6wMtXV-11" value="有" style="edgeLabel;html=1;align=center;verticalAlign=middle;resizable=0;points=[];" parent="bI8IC3T_FHCIpc6wMtXV-10" vertex="1" connectable="0">
          <mxGeometry x="-0.1346" y="-3" relative="1" as="geometry">
            <mxPoint as="offset" />
          </mxGeometry>
        </mxCell>
        <mxCell id="y2JGHucnLY-TwAghRRZY-1" value="缓存" style="rhombus;whiteSpace=wrap;html=1;" parent="TtewC0Fa2fpn-9esSaC2-1" vertex="1">
          <mxGeometry x="320" y="110" width="80" height="30" as="geometry" />
        </mxCell>
        <mxCell id="y2JGHucnLY-TwAghRRZY-7" style="edgeStyle=orthogonalEdgeStyle;rounded=0;orthogonalLoop=1;jettySize=auto;html=1;exitX=0.5;exitY=1;exitDx=0;exitDy=0;entryX=0.5;entryY=0;entryDx=0;entryDy=0;" parent="TtewC0Fa2fpn-9esSaC2-1" source="y2JGHucnLY-TwAghRRZY-4" target="y2JGHucnLY-TwAghRRZY-6" edge="1">
          <mxGeometry relative="1" as="geometry" />
        </mxCell>
        <mxCell id="y2JGHucnLY-TwAghRRZY-4" value="同城市价格范围内筛选数据" style="rounded=0;whiteSpace=wrap;html=1;" parent="TtewC0Fa2fpn-9esSaC2-1" vertex="1">
          <mxGeometry x="300" y="240" width="120" height="30" as="geometry" />
        </mxCell>
        <mxCell id="y2JGHucnLY-TwAghRRZY-10" style="edgeStyle=orthogonalEdgeStyle;rounded=0;orthogonalLoop=1;jettySize=auto;html=1;exitX=0.5;exitY=1;exitDx=0;exitDy=0;entryX=0.5;entryY=0;entryDx=0;entryDy=0;" parent="TtewC0Fa2fpn-9esSaC2-1" source="y2JGHucnLY-TwAghRRZY-6" target="y2JGHucnLY-TwAghRRZY-9" edge="1">
          <mxGeometry relative="1" as="geometry" />
        </mxCell>
        <mxCell id="y2JGHucnLY-TwAghRRZY-6" value="按价差最小排序" style="rounded=0;whiteSpace=wrap;html=1;" parent="TtewC0Fa2fpn-9esSaC2-1" vertex="1">
          <mxGeometry x="300" y="300" width="120" height="30" as="geometry" />
        </mxCell>
        <mxCell id="y2JGHucnLY-TwAghRRZY-12" style="edgeStyle=orthogonalEdgeStyle;rounded=0;orthogonalLoop=1;jettySize=auto;html=1;exitX=1;exitY=0.5;exitDx=0;exitDy=0;entryX=0.5;entryY=0;entryDx=0;entryDy=0;" parent="TtewC0Fa2fpn-9esSaC2-1" source="y2JGHucnLY-TwAghRRZY-9" target="y2JGHucnLY-TwAghRRZY-11" edge="1">
          <mxGeometry relative="1" as="geometry" />
        </mxCell>
        <mxCell id="y2JGHucnLY-TwAghRRZY-13" value="不足" style="edgeLabel;html=1;align=center;verticalAlign=middle;resizable=0;points=[];" parent="y2JGHucnLY-TwAghRRZY-12" vertex="1" connectable="0">
          <mxGeometry x="-0.297" relative="1" as="geometry">
            <mxPoint as="offset" />
          </mxGeometry>
        </mxCell>
        <mxCell id="bI8IC3T_FHCIpc6wMtXV-4" value="足够" style="edgeStyle=orthogonalEdgeStyle;rounded=0;orthogonalLoop=1;jettySize=auto;html=1;exitX=0.5;exitY=1;exitDx=0;exitDy=0;entryX=0.5;entryY=0;entryDx=0;entryDy=0;" parent="TtewC0Fa2fpn-9esSaC2-1" source="y2JGHucnLY-TwAghRRZY-9" target="bI8IC3T_FHCIpc6wMtXV-2" edge="1">
          <mxGeometry relative="1" as="geometry" />
        </mxCell>
        <mxCell id="y2JGHucnLY-TwAghRRZY-9" value="数量" style="rhombus;whiteSpace=wrap;html=1;" parent="TtewC0Fa2fpn-9esSaC2-1" vertex="1">
          <mxGeometry x="320" y="360" width="80" height="30" as="geometry" />
        </mxCell>
        <mxCell id="y2JGHucnLY-TwAghRRZY-15" style="edgeStyle=orthogonalEdgeStyle;rounded=0;orthogonalLoop=1;jettySize=auto;html=1;exitX=0.5;exitY=1;exitDx=0;exitDy=0;entryX=0.5;entryY=0;entryDx=0;entryDy=0;" parent="TtewC0Fa2fpn-9esSaC2-1" source="y2JGHucnLY-TwAghRRZY-11" target="y2JGHucnLY-TwAghRRZY-14" edge="1">
          <mxGeometry relative="1" as="geometry" />
        </mxCell>
        <mxCell id="y2JGHucnLY-TwAghRRZY-11" value="同省份筛选" style="rounded=0;whiteSpace=wrap;html=1;" parent="TtewC0Fa2fpn-9esSaC2-1" vertex="1">
          <mxGeometry x="600" y="180" width="120" height="30" as="geometry" />
        </mxCell>
        <mxCell id="bI8IC3T_FHCIpc6wMtXV-1" style="edgeStyle=orthogonalEdgeStyle;rounded=0;orthogonalLoop=1;jettySize=auto;html=1;exitX=0.5;exitY=1;exitDx=0;exitDy=0;" parent="TtewC0Fa2fpn-9esSaC2-1" source="y2JGHucnLY-TwAghRRZY-14" target="bI8IC3T_FHCIpc6wMtXV-0" edge="1">
          <mxGeometry relative="1" as="geometry" />
        </mxCell>
        <mxCell id="y2JGHucnLY-TwAghRRZY-14" value="&lt;span&gt;同城市价格范围内筛选数据&lt;/span&gt;" style="rounded=0;whiteSpace=wrap;html=1;" parent="TtewC0Fa2fpn-9esSaC2-1" vertex="1">
          <mxGeometry x="600" y="240" width="120" height="30" as="geometry" />
        </mxCell>
        <mxCell id="bI8IC3T_FHCIpc6wMtXV-3" style="edgeStyle=orthogonalEdgeStyle;rounded=0;orthogonalLoop=1;jettySize=auto;html=1;exitX=0.5;exitY=1;exitDx=0;exitDy=0;entryX=1;entryY=0.5;entryDx=0;entryDy=0;" parent="TtewC0Fa2fpn-9esSaC2-1" source="bI8IC3T_FHCIpc6wMtXV-0" target="bI8IC3T_FHCIpc6wMtXV-2" edge="1">
          <mxGeometry relative="1" as="geometry" />
        </mxCell>
        <mxCell id="bI8IC3T_FHCIpc6wMtXV-0" value="按价差最小排序" style="rounded=0;whiteSpace=wrap;html=1;" parent="TtewC0Fa2fpn-9esSaC2-1" vertex="1">
          <mxGeometry x="600" y="300" width="120" height="30" as="geometry" />
        </mxCell>
        <mxCell id="bI8IC3T_FHCIpc6wMtXV-6" style="edgeStyle=orthogonalEdgeStyle;rounded=0;orthogonalLoop=1;jettySize=auto;html=1;exitX=0.5;exitY=1;exitDx=0;exitDy=0;" parent="TtewC0Fa2fpn-9esSaC2-1" source="bI8IC3T_FHCIpc6wMtXV-2" target="bI8IC3T_FHCIpc6wMtXV-5" edge="1">
          <mxGeometry relative="1" as="geometry" />
        </mxCell>
        <mxCell id="bI8IC3T_FHCIpc6wMtXV-2" value="写入缓存" style="rounded=0;whiteSpace=wrap;html=1;" parent="TtewC0Fa2fpn-9esSaC2-1" vertex="1">
          <mxGeometry x="300" y="420" width="120" height="30" as="geometry" />
        </mxCell>
        <mxCell id="bI8IC3T_FHCIpc6wMtXV-5" value="结束" style="rounded=1;whiteSpace=wrap;html=1;" parent="TtewC0Fa2fpn-9esSaC2-1" vertex="1">
          <mxGeometry x="300" y="500" width="120" height="30" as="geometry" />
        </mxCell>
      </root>
    </mxGraphModel>
  </diagram>
  <diagram id="ss9tFPlMM3otQJr15Gtc" name="Page-4">
    <mxGraphModel dx="1422" dy="828" grid="1" gridSize="10" guides="1" tooltips="1" connect="1" arrows="1" fold="1" page="1" pageScale="1" pageWidth="827" pageHeight="1169" math="0" shadow="0">
      <root>
        <mxCell id="0Sh44BqFscE3sz2tdZ_A-0" />
        <mxCell id="0Sh44BqFscE3sz2tdZ_A-1" parent="0Sh44BqFscE3sz2tdZ_A-0" />
      </root>
    </mxGraphModel>
  </diagram>
</mxfile>
